<?xml version="1.0"?>
<svg xmlns="http://www.w3.org/2000/svg" viewBox="0 0 64 64" width="512px" height="512px" class=""><g><title class="active-path" style="fill:#F9F9F9" data-old_color="#F0F0F0">pipes-Industry-pipeline-plumbing-water</title><g id="Expand"><path d="M56,3H53a1,1,0,0,0-1-1H46a1,1,0,0,0-1,1V4.025A22.026,22.026,0,0,0,24.025,25H24a1,1,0,0,0-1,1v3a1,1,0,0,0-1,1v6a1,1,0,0,0,1,1h1v5H19V41a1,1,0,0,0-1-1H12a1,1,0,0,0-1,1H8a1,1,0,0,0-1,1H2v2H7V56H2v2H7a1,1,0,0,0,1,1h3a1,1,0,0,0,1,1h6a1,1,0,0,0,1-1V58H45v1a1,1,0,0,0,1,1h6a1,1,0,0,0,1-1h3a1,1,0,0,0,1-1h5V56H57V44h5V42H57a1,1,0,0,0-1-1H53a1,1,0,0,0-1-1H46a1,1,0,0,0-1,1v1H40V37h1a1,1,0,0,0,1-1V30a1,1,0,0,0-1-1V26a.99.99,0,0,0-.912-.982A6.006,6.006,0,0,1,45,20.09V21a1,1,0,0,0,1,1h6a1,1,0,0,0,1-1h3a1,1,0,0,0,1-1h5V18H57V6h5V4H57A1,1,0,0,0,56,3ZM9,57V43h2V57Zm8,1H13V42h4ZM55,43V57H53V43Zm-8-1h4V58H47Zm-8,2h6V56H19V44h6a1,1,0,0,0,1-1V37H38v6A1,1,0,0,0,39,44Zm1-9H24V31H40ZM25,29V27H39v2Zm13.069-4H26.051A19.991,19.991,0,0,1,45,6.051V18.069A8.008,8.008,0,0,0,38.069,25ZM47,20V4h4V20Zm8-1H53V5h2Z" data-original="#000000" class="active-path" data-old_color="#F0F0F0" fill="#F9F9F9"/><path d="M20.753,19.761l1.943.478A23.951,23.951,0,0,1,35.44,4.441l-.88-1.795A25.947,25.947,0,0,0,20.753,19.761Z" data-original="#000000" class="active-path" data-old_color="#F0F0F0" fill="#F9F9F9"/><rect x="22" y="60" width="16" height="2" data-original="#000000" class="active-path" data-old_color="#F0F0F0" fill="#F9F9F9"/><rect x="40" y="60" width="2" height="2" data-original="#000000" class="active-path" data-old_color="#F0F0F0" fill="#F9F9F9"/></g></g> </svg>
