<?xml version="1.0"?>
<svg xmlns="http://www.w3.org/2000/svg" height="512px" viewBox="0 0 512 512.00003" width="512px" class=""><g><path d="m196.265625 85.332031c0 4.714844-3.820313 8.535157-8.53125 8.535157-4.714844 0-8.535156-3.820313-8.535156-8.535157 0-4.710937 3.820312-8.53125 8.535156-8.53125 4.710937 0 8.53125 3.820313 8.53125 8.53125zm0 0" data-original="#000000" class="active-path" data-old_color="#FCF9F9" fill="#FDFBFB"/><path d="m178.875 315.734375h.328125c4.585937-.003906 8.351563-3.625 8.53125-8.210937l6.910156-180.820313c.179688-4.707031-3.492187-8.671875-8.203125-8.851563-4.707031-.179687-8.671875 3.492188-8.851562 8.203126l-6.910156 180.820312c-.089844 2.261719.726562 4.464844 2.261718 6.128906 1.539063 1.660156 3.671875 2.640625 5.933594 2.730469zm0 0" data-original="#000000" class="active-path" data-old_color="#FCF9F9" fill="#FDFBFB"/><path d="m486.398438 153.601562h-17.066407c-14.128906.015626-25.582031 11.464844-25.597656 25.597657v34.132812h-24.082031l-.59375-10.042969c-.804688-13.539062-12.023438-24.101562-25.585938-24.089843h-18.5625l-6.050781-130.433594c-1.269531-27.3125-23.800781-48.796875-51.144531-48.765625h-123.429688c-27.347656-.0273438-49.878906 21.457031-51.144531 48.773438l-6.050781 130.425781h-18.5625c-13.554688-.015625-24.773438 10.539062-25.582032 24.070312l-.59375 10.0625h-24.085937v-34.132812c-.015625-14.132813-11.46875-25.582031-25.597656-25.597657h-17.066407c-14.132812.015626-25.585937 11.464844-25.601562 25.597657v136.535156c.015625 14.132813 11.46875 25.582031 25.601562 25.597656h17.066407c14.128906-.015625 25.582031-11.464843 25.597656-25.597656v-34.132813h20.054687l-2.464843 41.707032c-.253907 4.59375 1.359375 9.097656 4.472656 12.484375 3.117187 3.382812 7.472656 5.363281 12.070313 5.488281v110.984375h-17.066407c-14.128906.015625-25.582031 11.46875-25.597656 25.601563v8.53125c.015625 14.132812 11.46875 25.585937 25.597656 25.601562h341.335938c14.128906-.015625 25.582031-11.46875 25.597656-25.601562v-8.53125c-.015625-14.132813-11.46875-25.585938-25.597656-25.601563h-17.066407v-110.984375c4.609376-.125 8.972657-2.113281 12.089844-5.511719 3.117188-3.398437 4.71875-7.914062 4.445313-12.519531l-2.457031-41.648438h20.054687v34.132813c.015625 14.132813 11.46875 25.582031 25.597656 25.597656h17.066407c14.132812-.015625 25.585937-11.464843 25.601562-25.597656v-136.535156c-.015625-14.132813-11.46875-25.582031-25.601562-25.597657zm-92.925782 42.664063c4.523438-.015625 8.273438 3.5 8.550782 8.015625l7.066406 119.984375h-27.453125l-5.9375-128zm-111.871094 256v-27.972656c5.261719-3.023438 8.511719-8.625 8.53125-14.691407v-25.601562h49.578126c3.425781-.039062 6.835937-.488281 10.15625-1.335938v69.601563zm-34.136718 0v-25.597656h17.070312v25.597656zm-85.332032 0v-69.601563c3.320313.847657 6.730469 1.296876 10.15625 1.335938h49.578126v25.601562c.019531 6.066407 3.269531 11.667969 8.53125 14.691407v27.972656zm110.945313-42.664063h-34.144531v-25.601562h34.136718zm-112.886719-360.023437c.730469-15.707031 12.109375-28.875 27.542969-31.875v24.964844c0 4.710937 3.820313 8.53125 8.53125 8.53125 4.714844 0 8.535156-3.820313 8.535156-8.53125v-25.601563h17.066407v25.601563c0 4.710937 3.820312 8.53125 8.53125 8.53125 4.714843 0 8.535156-3.820313 8.535156-8.53125v-25.601563h34.132812v25.601563c0 4.710937 3.820313 8.53125 8.535156 8.53125 4.710938 0 8.53125-3.820313 8.53125-8.53125v-25.601563h17.066407v25.601563c0 4.710937 3.820312 8.53125 8.535156 8.53125 4.710937 0 8.53125-3.820313 8.53125-8.53125v-24.964844c15.429687 3 26.808594 16.160156 27.542969 31.863281l13.480468 290.582032c.324219 6.988281-2.226562 13.804687-7.058593 18.867187-4.832031 5.058594-11.523438 7.917969-18.519531 7.917969h-167.421876c-6.996093 0-13.6875-2.863282-18.519531-7.921875-4.828125-5.058594-7.378906-11.875-7.054687-18.863281zm-41.664062 146.6875h17.773437l-5.9375 128-27.46875-.003906 7.089844-119.996094c.277344-4.511719 4.027344-8.019531 8.542969-8zm-67.328125 119.46875c-.003907 4.710937-3.820313 8.527344-8.53125 8.53125h-17.066407c-4.710937-.003906-8.527343-3.820313-8.535156-8.53125v-136.535156c.007813-4.710938 3.824219-8.527344 8.535156-8.53125h17.066407c4.710937.003906 8.527343 3.820312 8.53125 8.53125zm17.066406-51.199219v-34.136718h23.078125l-2.015625 34.136718zm51.199219 76.796875h10.304687c-.09375 10.964844 4.089844 21.53125 11.65625 29.464844 1.152344 1.105469 2.371094 2.148437 3.640625 3.121094v78.347656h-25.601562zm315.734375 136.535157v8.53125c-.003907 4.710937-3.820313 8.527343-8.53125 8.535156h-341.335938c-4.707031-.007813-8.527343-3.824219-8.53125-8.535156v-8.53125c.003907-4.710938 3.824219-8.527344 8.53125-8.535157h341.335938c4.710937.007813 8.527343 3.824219 8.53125 8.535157zm-68.265625-25.601563v-78.347656c1.269531-.972657 2.488281-2.015625 3.640625-3.121094 7.566406-7.933594 11.75-18.5 11.65625-29.464844h10.304687v110.933594zm55.738281-187.730469-2.011719-34.136718h23.074219v34.136718zm72.261719 51.199219c-.007813 4.710937-3.824219 8.527344-8.535156 8.53125h-17.066407c-4.707031-.003906-8.527343-3.820313-8.53125-8.53125v-136.535156c.003907-4.710938 3.824219-8.527344 8.53125-8.53125h17.066407c4.710937.003906 8.527343 3.820312 8.535156 8.53125zm0 0" data-original="#000000" class="active-path" data-old_color="#FCF9F9" fill="#FDFBFB"/></g> </svg>
