<?xml version="1.0"?>
<svg xmlns="http://www.w3.org/2000/svg" height="512px" viewBox="0 0 496 496" width="512px" class=""><g><path d="m480 272h-32v-224c8.824219 0 16-7.175781 16-16v-16c0-8.824219-7.175781-16-16-16h-400c-8.824219 0-16 7.175781-16 16v16c0 8.824219 7.175781 16 16 16v160h-32c-8.824219 0-16 7.175781-16 16v16c0 8.824219 7.175781 16 16 16v240h464v-176c8.824219 0 16-7.175781 16-16v-16c0-8.824219-7.175781-16-16-16zm-96 0v-16c8.824219 0 16-7.175781 16-16v-16c0-8.824219-7.175781-16-16-16h-52.6875l44.6875-44.6875 56 56v52.6875zm-272 82.464844-72.207031-98.464844h144.421875zm80-82.023438v191.117188l-70.078125-95.558594zm-89.921875 95.558594-70.078125 95.558594v-191.117188zm9.921875 13.535156 72.207031 98.464844h-144.414062zm144 98.464844h-40.207031l40.207031-54.832031zm0-160v78.105469l-48 65.453125v-207.558594h160v16h-112c-8.824219 0-16 7.175781-16 16v16c0 8.824219 7.175781 16 16 16zm-100.6875-112-24-24 44.6875-44.6875v68.6875zm-22.625 0h-25.375l12.6875-12.6875zm299.3125-11.3125-44.6875-44.6875 44.6875-44.6875zm-56-56-44.6875-44.6875h89.375zm-56-33.375 44.6875 44.6875-44.6875 44.6875zm-16 41.375-44.6875-44.6875 44.6875-44.6875zm-11.3125 11.3125h-89.375l44.6875-44.6875zm-44.6875-67.3125-44.6875-44.6875h89.375zm-11.3125 11.3125-44.6875 44.6875v-89.375zm-116.6875 68.6875-44.6875-44.6875h89.375zm72 3.3125h112v32h-112zm240-96h-112v-32h112zm-384-64h400l.007812 16h-400.007812zm128 32v64h-112v-64zm-112 91.3125 44.6875 44.6875-24 24h-20.6875zm-48 84.6875h368l.007812 16h-368.007812zm384 256h-64v-80h64zm64 0h-48v-96h-96v96h-48v-160h192zm-208-176v-16h224l.007812 16zm0 0" data-original="#000000" class="active-path" data-old_color="#EBE7E7" fill="#F7F7F7"/></g> </svg>
